<svg width="14" height="12" viewBox="0 0 14 12" fill="none" xmlns="http://www.w3.org/2000/svg">
<path d="M2.33333 2.66663H3C3.35362 2.66663 3.69276 2.52615 3.94281 2.2761C4.19286 2.02605 4.33333 1.68691 4.33333 1.33329C4.33333 1.15648 4.40357 0.986912 4.5286 0.861888C4.65362 0.736864 4.82319 0.666626 5 0.666626H9C9.17681 0.666626 9.34638 0.736864 9.4714 0.861888C9.59643 0.986912 9.66667 1.15648 9.66667 1.33329C9.66667 1.68691 9.80714 2.02605 10.0572 2.2761C10.3072 2.52615 10.6464 2.66663 11 2.66663H11.6667C12.0203 2.66663 12.3594 2.8071 12.6095 3.05715C12.8595 3.3072 13 3.64634 13 3.99996V9.99996C13 10.3536 12.8595 10.6927 12.6095 10.9428C12.3594 11.1928 12.0203 11.3333 11.6667 11.3333H2.33333C1.97971 11.3333 1.64057 11.1928 1.39052 10.9428C1.14048 10.6927 1 10.3536 1 9.99996V3.99996C1 3.64634 1.14048 3.3072 1.39052 3.05715C1.64057 2.8071 1.97971 2.66663 2.33333 2.66663" stroke="white" stroke-linecap="round" stroke-linejoin="round"/>
</svg>
