<svg width="22" height="20" viewBox="0 0 22 20" fill="none" xmlns="http://www.w3.org/2000/svg">
<path d="M5.375 4.35C5.375 4.19087 5.4352 4.03826 5.54237 3.92574C5.64953 3.81321 5.79488 3.75 5.94643 3.75H20.8036C20.9551 3.75 21.1005 3.81321 21.2076 3.92574C21.3148 4.03826 21.375 4.19087 21.375 4.35V5.55C21.375 5.70913 21.3148 5.86174 21.2076 5.97426C21.1005 6.08679 20.9551 6.15 20.8036 6.15H5.94643C5.79488 6.15 5.64953 6.08679 5.54237 5.97426C5.4352 5.86174 5.375 5.70913 5.375 5.55V4.35ZM5.375 9.15C5.375 8.99087 5.4352 8.83826 5.54237 8.72574C5.64953 8.61321 5.79488 8.55 5.94643 8.55H11.6607C11.8123 8.55 11.9576 8.61321 12.0648 8.72574C12.1719 8.83826 12.2321 8.99087 12.2321 9.15V10.35C12.2321 10.5091 12.1719 10.6617 12.0648 10.7743C11.9576 10.8868 11.8123 10.95 11.6607 10.95H5.94643C5.79488 10.95 5.64953 10.8868 5.54237 10.7743C5.4352 10.6617 5.375 10.5091 5.375 10.35V9.15ZM5.375 13.95C5.375 13.7909 5.4352 13.6383 5.54237 13.5257C5.64953 13.4132 5.79488 13.35 5.94643 13.35H7.08929C7.24084 13.35 7.38618 13.4132 7.49335 13.5257C7.60051 13.6383 7.66071 13.7909 7.66071 13.95V15.15C7.66071 15.3091 7.60051 15.4617 7.49335 15.5743C7.38618 15.6868 7.24084 15.75 7.08929 15.75H5.94643C5.79488 15.75 5.64953 15.6868 5.54237 15.5743C5.4352 15.4617 5.375 15.3091 5.375 15.15V13.95ZM14.5179 13.95C14.5179 13.7909 14.5781 13.6383 14.6852 13.5257C14.7924 13.4132 14.9377 13.35 15.0893 13.35H16.2321C16.3837 13.35 16.529 13.4132 16.6362 13.5257C16.7434 13.6383 16.8036 13.7909 16.8036 13.95V15.15C16.8036 15.3091 16.7434 15.4617 16.6362 15.5743C16.529 15.6868 16.3837 15.75 16.2321 15.75H15.0893C14.9377 15.75 14.7924 15.6868 14.6852 15.5743C14.5781 15.4617 14.5179 15.3091 14.5179 15.15V13.95ZM9.94643 13.95C9.94643 13.7909 10.0066 13.6383 10.1138 13.5257C10.221 13.4132 10.3663 13.35 10.5179 13.35H11.6607C11.8123 13.35 11.9576 13.4132 12.0648 13.5257C12.1719 13.6383 12.2321 13.7909 12.2321 13.95V15.15C12.2321 15.3091 12.1719 15.4617 12.0648 15.5743C11.9576 15.6868 11.8123 15.75 11.6607 15.75H10.5179C10.3663 15.75 10.221 15.6868 10.1138 15.5743C10.0066 15.4617 9.94643 15.3091 9.94643 15.15V13.95ZM19.0893 13.95C19.0893 13.7909 19.1495 13.6383 19.2567 13.5257C19.3638 13.4132 19.5092 13.35 19.6607 13.35H20.8036C20.9551 13.35 21.1005 13.4132 21.2076 13.5257C21.3148 13.6383 21.375 13.7909 21.375 13.95V15.15C21.375 15.3091 21.3148 15.4617 21.2076 15.5743C21.1005 15.6868 20.9551 15.75 20.8036 15.75H19.6607C19.5092 15.75 19.3638 15.6868 19.2567 15.5743C19.1495 15.4617 19.0893 15.3091 19.0893 15.15V13.95ZM14.5179 9.15C14.5179 8.99087 14.5781 8.83826 14.6852 8.72574C14.7924 8.61321 14.9377 8.55 15.0893 8.55H20.8036C20.9551 8.55 21.1005 8.61321 21.2076 8.72574C21.3148 8.83826 21.375 8.99087 21.375 9.15V10.35C21.375 10.5091 21.3148 10.6617 21.2076 10.7743C21.1005 10.8868 20.9551 10.95 20.8036 10.95H15.0893C14.9377 10.95 14.7924 10.8868 14.6852 10.7743C14.5781 10.6617 14.5179 10.5091 14.5179 10.35V9.15Z" fill="white"/>
</svg>
