<svg width="24" height="24" viewBox="0 0 24 24" fill="none" xmlns="http://www.w3.org/2000/svg">
<rect width="24" height="24" rx="12" fill="#344054"/>
<path d="M7.33333 8.66669H8C8.35362 8.66669 8.69276 8.52621 8.94281 8.27616C9.19286 8.02611 9.33333 7.68698 9.33333 7.33335C9.33333 7.15654 9.40357 6.98697 9.5286 6.86195C9.65362 6.73693 9.82319 6.66669 10 6.66669H14C14.1768 6.66669 14.3464 6.73693 14.4714 6.86195C14.5964 6.98697 14.6667 7.15654 14.6667 7.33335C14.6667 7.68698 14.8071 8.02611 15.0572 8.27616C15.3072 8.52621 15.6464 8.66669 16 8.66669H16.6667C17.0203 8.66669 17.3594 8.80716 17.6095 9.05721C17.8595 9.30726 18 9.6464 18 10V16C18 16.3536 17.8595 16.6928 17.6095 16.9428C17.3594 17.1929 17.0203 17.3334 16.6667 17.3334H7.33333C6.97971 17.3334 6.64057 17.1929 6.39052 16.9428C6.14048 16.6928 6 16.3536 6 16V10C6 9.6464 6.14048 9.30726 6.39052 9.05721C6.64057 8.80716 6.97971 8.66669 7.33333 8.66669" stroke="white" stroke-linecap="round" stroke-linejoin="round"/>
<path d="M12 14.6667C13.1046 14.6667 14 13.7713 14 12.6667C14 11.5621 13.1046 10.6667 12 10.6667C10.8954 10.6667 10 11.5621 10 12.6667C10 13.7713 10.8954 14.6667 12 14.6667Z" stroke="white" stroke-linecap="round" stroke-linejoin="round"/>
</svg>
