<svg width="19" height="20" viewBox="0 0 19 20" fill="none" xmlns="http://www.w3.org/2000/svg">
<path fill-rule="evenodd" clip-rule="evenodd" d="M9.5 0C7.93279 0.00517314 6.41901 0.600169 5.23213 1.6775C4.3225 2.5025 3.66344 3.5775 3.49362 4.65625C1.50337 5.11875 0 6.94375 0 9.1475C0 11.7075 2.02825 13.75 4.48994 13.75H8.90625V7.13375L6.35787 9.8175C6.24638 9.93486 6.09517 10.0008 5.9375 10.0008C5.77983 10.0008 5.62862 9.93486 5.51713 9.8175C5.40563 9.70014 5.343 9.54097 5.343 9.375C5.343 9.20903 5.40563 9.04986 5.51713 8.9325L9.07963 5.1825C9.13478 5.1243 9.2003 5.07812 9.27244 5.04661C9.34457 5.0151 9.4219 4.99888 9.5 4.99888C9.5781 4.99888 9.65543 5.0151 9.72756 5.04661C9.7997 5.07812 9.86522 5.1243 9.92037 5.1825L13.4829 8.9325C13.5944 9.04986 13.657 9.20903 13.657 9.375C13.657 9.54097 13.5944 9.70014 13.4829 9.8175C13.3714 9.93486 13.2202 10.0008 13.0625 10.0008C12.9048 10.0008 12.7536 9.93486 12.6421 9.8175L10.0938 7.13375V13.75H15.067C17.2211 13.75 19 11.9625 19 9.71625C19 7.67125 17.5251 6.005 15.6346 5.72375C15.3461 2.49875 12.6944 0 9.5 0ZM8.90625 18.125V13.75H10.0938V18.125C10.0938 18.2908 10.0312 18.4497 9.91985 18.5669C9.8085 18.6842 9.65747 18.75 9.5 18.75C9.34253 18.75 9.19151 18.6842 9.08016 18.5669C8.96881 18.4497 8.90625 18.2908 8.90625 18.125Z" fill="white"/>
</svg>
