<svg width="40" height="40" viewBox="0 0 40 40" fill="none" xmlns="http://www.w3.org/2000/svg">
<rect width="40" height="40" rx="20" fill="#EDF8FF"/>
<path d="M13.6691 13H26.6691C26.8131 13.0505 26.9436 13.1333 27.0507 13.2421C27.1578 13.3508 27.2385 13.4826 27.2868 13.6274C27.3351 13.7722 27.3495 13.9261 27.3291 14.0774C27.3087 14.2286 27.254 14.3732 27.1691 14.5L22.1691 20V27L18.1691 24V20L13.1691 14.5C13.0841 14.3732 13.0294 14.2286 13.009 14.0774C12.9886 13.9261 13.0031 13.7722 13.0513 13.6274C13.0996 13.4826 13.1803 13.3508 13.2874 13.2421C13.3945 13.1333 13.525 13.0505 13.6691 13Z" stroke="#4FADEA" stroke-width="1.5" stroke-linecap="round" stroke-linejoin="round"/>
</svg>
