<svg version="1.2" xmlns="http://www.w3.org/2000/svg" viewBox="0 0 640 512" width="24" height="24">
	<title>gears-solid-svg</title>
	<style>
		.s0 { fill: #ffffff } 
	</style>
	<path id="Layer" fill-rule="evenodd" class="s0" d="m286.3 155.1c1.1 6.8 1.7 13.8 1.7 20 0 8-0.6 15-1.7 21.8l22.2 19.8c7 6.3 9.9 15.4 6.2 25-2.3 4.4-4.8 10.5-7.6 15.5l-3.1 5.4c-3.9 5-6.3 9.8-9.8 14.5-5.7 7.6-15.7 10.1-24.7 7.1l-28.3-9.3c-10.7 8.9-22.9 16-36.2 21l-6.9 29c-1.1 9.3-8.3 16.7-17.7 17.9q-10.1 1.2-20.4 1.2-10.4 0-20.4-1.2c-9.4-1.2-17.5-8.6-18.6-17.9l-6.9-29c-12.4-5-24.6-12.1-35.4-21l-28.2 9.3c-9 3-19 0.5-24.7-7.1-3.5-4.7-6.8-9.6-9.9-14.6l-3-5.3c-2.8-5-5.3-10.2-7.6-15.5-3.7-9.6-0.8-18.7 6.2-25l22.2-19.8c-1.1-6.8-2.6-13.8-2.6-21.8 0-6.2 1.5-13.2 2.6-20l-22.2-19.8c-7-7.2-9.9-16.3-6.2-25 2.3-6.2 4.8-10.5 7.6-15.5l3-5.3q4.6-7.6 9.9-14.6c5.7-7.6 15.7-10.1 24.7-7.1l28.2 9.3c10.8-8.8 23-16 35.4-20.9l6.9-29.1c1.1-9.3 9.2-16.7 18.6-17.9q10-1.2 20.4-1.2 10.3 0 20.4 1.2c9.4 1.2 16.6 8.6 17.7 17.9l6.9 29.1c13.3 4.9 25.5 12.1 36.2 20.9l28.3-9.3c9-3 19-0.5 24.7 7.1 3.5 4.7 5.9 9.5 9.8 14.5l3.1 5.4c2.8 5 5.3 10.2 7.6 15.5 3.7 8.7 0.8 17.8-6.2 25zm-126.3-28c-26.5 0-48 22.4-48 48 0 27.4 21.5 48 48 48 26.5 0 48-20.6 48-48 0-25.6-21.5-48-48-48zm324.9 351.2c-6.8 1.1-13.8 1.7-20.9 1.7-7.1 0-14.1-0.6-20.9-1.7l-19.8 22.2c-7.2 7-16.3 9.9-25 6.2-5.3-2.3-10.5-4.8-15.5-7.6l-5.4-3.1c-5-3.9-9.8-6.3-14.5-9.8-7.6-5.7-10.1-15.7-7.1-24.7l9.3-28.3c-8.9-10.7-16-22.9-21-36.2l-29-6.9c-9.3-1.1-16.7-8.3-17.9-17.7q-1.2-10.1-1.2-20.4 0-10.3 1.2-20.4c1.2-9.4 8.6-17.5 17.9-18.6l29-6.9c5-12.4 12.1-24.6 21-35.3l-9.3-28.3c-3-9-0.5-19 7.1-24.7 4.7-3.5 9.6-7.7 14.6-9.9l5.3-3c5-2.8 9.3-5.3 15.5-7.6 8.7-3.7 17.8-0.8 25 6.2l19.8 22.2c6.8-1.1 13.8-1.7 20.9-1.7 7.1 0 14.1 0.6 20.9 1.7l19.8-22.2c6.3-7 15.4-9.9 25-6.2 5.3 2.3 10.5 4.8 15.5 7.6l5.3 3c5 2.2 9.9 6.4 14.6 9.9 7.6 5.7 10.1 15.7 7.1 24.7l-9.3 28.3c8.9 10.7 16 22.9 21 35.3l29 6.9c9.3 1.1 16.7 9.2 17.9 18.6q1.2 10.1 1.2 20.4 0 10.3-1.2 20.4c-1.2 9.4-8.6 16.6-17.9 17.7l-29 6.9c-5 13.3-12.1 25.5-21 36.2l9.3 28.3c3 9 0.5 19-7.1 24.7-4.7 3.5-9.5 5.9-14.5 9.8l-5.4 3.1c-5 2.8-11.1 5.3-15.5 7.6-9.6 3.7-18.7 0.8-25-6.2zm27.1-126.3c0-26.5-21.5-48-48-48-26.5 0-48 21.5-48 48 0 26.5 21.5 48 48 48 26.5 0 48-21.5 48-48z"/>
</svg>