<svg width="24" height="24" viewBox="0 0 24 24" fill="none" xmlns="http://www.w3.org/2000/svg">
<path opacity="0.3" d="M22 12C22 6.47715 17.5228 2 12 2C6.47715 2 2 6.47715 2 12C2 17.5228 6.47715 22 12 22C17.5228 22 22 17.5228 22 12Z" fill="white"/>
<path fill-rule="evenodd" clip-rule="evenodd" d="M6.16806 14.5547C5.8617 14.0952 5.98588 13.4743 6.44541 13.1679C6.90493 12.8616 7.5258 12.9858 7.83216 13.4453C8.98919 15.1808 10.3544 16 12.0001 16C13.6458 16 15.011 15.1808 16.1681 13.4453C16.4744 12.9858 17.0953 12.8616 17.5548 13.1679C18.0143 13.4743 18.1385 14.0952 17.8322 14.5547C16.3225 16.8191 14.3544 18 12.0001 18C9.64578 18 7.67769 16.8191 6.16806 14.5547Z" fill="white"/>
</svg>
