<svg version="1.2" xmlns="http://www.w3.org/2000/svg" viewBox="0 0 512 512" width="20" height="auto">
	<title>arrows-rotate-solid-svg</title>
	<style>
		.s0 { fill: #ffffff } 
	</style>
	<path id="Layer" class="s0" d="m496 48v144c0 17.7-14.3 32-32 32h-128c-17.7 0-32-14.3-32-32c0-17.7 14.3-32 32-32h44.4c-28.1-39.5-73.9-64-124.4-64c-66.6 0-125.1 42.5-145.5 105.9c-5.4 16.8-23.4 26.1-40.3 20.6c-16.8-5.4-26.1-23.5-20.6-40.3c29-89.9 111.9-150.2 206.4-150.2c71.4 0 136.1 34.5 176 90.1v-74.1c0-17.7 14.3-32 32-32c17.7 0 32 14.3 32 32zm-34.5 281.8c-29 89.9-111.9 150.2-206.4 150.2c-70.5 0-135.2-34.5-175.1-90.1v74.1c0 17.7-14.3 32-32 32c-17.7 0-32-14.3-32-32v-144c0-17.7 14.3-32 32-32h128c17.7 0 32 14.3 32 32c0 17.7-14.3 32-32 32h-44.4c28.2 39.4 73.9 64 124.4 64c66.6 0 125.1-42.5 145.5-105.8c5.4-16.8 23.4-26 40.3-20.6c16.8 4.5 26.1 23.4 19.7 40.2z" />
</svg>