<svg width="26" height="26" viewBox="0 0 26 26" fill="none" xmlns="http://www.w3.org/2000/svg">
<path d="M10.3002 12.9998C12.2888 12.9998 13.9004 11.4331 13.9004 9.4999C13.9004 7.56674 12.2888 5.99998 10.3002 5.99998C8.31173 5.99998 6.70011 7.56674 6.70011 9.4999C6.70011 11.4331 8.31173 12.9998 10.3002 12.9998ZM12.8203 13.8748H12.3506C11.7262 14.1537 11.0315 14.3123 10.3002 14.3123C9.56897 14.3123 8.87707 14.1537 8.24985 13.8748H7.78015C5.69319 13.8748 4 15.5209 4 17.5497V18.6872C4 19.4118 4.60471 19.9997 5.35005 19.9997H13.0819C13.0144 19.8137 12.9863 19.6168 13.0088 19.4172L13.2 17.752L13.2338 17.4485L13.456 17.2325L15.6301 15.1189C14.9411 14.3615 13.9426 13.8748 12.8203 13.8748ZM14.0945 17.8478L13.9032 19.5157C13.8723 19.7946 14.1141 20.0297 14.3982 19.9969L16.1111 19.811L19.9897 16.0404L17.973 14.0799L14.0945 17.8478ZM21.8038 13.3525L20.7378 12.3162C20.4763 12.062 20.0488 12.062 19.7872 12.3162L18.724 13.3498L18.6087 13.4619L20.6282 15.4224L21.8038 14.2795C22.0654 14.0225 22.0654 13.6096 21.8038 13.3525Z" fill="#4FADEA"/>
</svg>
