<svg width="24" height="24" viewBox="0 0 24 24" fill="none" xmlns="http://www.w3.org/2000/svg">
<path d="M22.4469 10.4719L18.8469 9.06563C18.7188 9.01562 18.4531 8.95 18.1531 9.06563L14.5531 10.4719C14.2188 10.6031 14 10.9094 14 11.25C14 14.7375 16.1469 17.15 18.1531 17.9344C18.4531 18.05 18.7156 17.9844 18.8469 17.9344C20.45 17.3094 23 15.1406 23 11.25C23 10.9094 22.7813 10.6031 22.4469 10.4719ZM18.5 16.45V10.5406L21.4844 11.7063C21.3094 14.4281 19.5813 15.9375 18.5 16.45ZM10 10C12.2094 10 14 8.20937 14 6C14 3.79063 12.2094 2 10 2C7.79063 2 6 3.79063 6 6C6 8.20937 7.79063 10 10 10ZM13 11.25C13 11.1719 13.025 11.1 13.0344 11.025C12.9563 11.0219 12.8813 11 12.8 11H12.2781C11.5844 11.3188 10.8125 11.5 10 11.5C9.1875 11.5 8.41875 11.3188 7.72188 11H7.2C4.88125 11 3 12.8812 3 15.2V16.5C3 17.3281 3.67188 18 4.5 18H15.5C15.7125 18 15.9156 17.9531 16.1 17.875C14.4125 16.5344 13 14.2281 13 11.25Z" fill="white"/>
</svg>
